<svg width="405" height="252" viewBox="0 0 405 252" fill="none" xmlns="http://www.w3.org/2000/svg">
<path d="M290.872 39.856C290.872 39.936 290.848 40.016 290.8 40.096C290.752 40.16 290.712 40.24 290.68 40.336C290.616 40.512 290.568 40.608 290.536 40.624C290.52 40.64 290.464 40.704 290.368 40.816C290.32 40.88 290.288 40.936 290.272 40.984C290.256 41.016 290.232 41.048 290.2 41.08C290.136 41.112 290.048 41.096 289.936 41.032C289.776 40.888 289.584 40.736 289.36 40.576C289.136 40.416 288.896 40.28 288.64 40.168C288.384 40.04 288.112 39.952 287.824 39.904C287.552 39.856 287.272 39.88 286.984 39.976C286.584 40.104 286.12 40.328 285.592 40.648C285.064 40.968 284.616 41.36 284.248 41.824C283.8 42.4 283.56 43.024 283.528 43.696C283.496 44.352 283.624 44.96 283.912 45.52C284.216 46.08 284.664 46.56 285.256 46.96C285.848 47.344 286.552 47.552 287.368 47.584C287.784 47.52 288.144 47.384 288.448 47.176C288.768 46.952 289.04 46.688 289.264 46.384C289.504 46.08 289.704 45.76 289.864 45.424C290.024 45.072 290.152 44.744 290.248 44.44C289.432 44.648 288.616 44.824 287.8 44.968C286.984 45.096 286.168 45.056 285.352 44.848C285.272 44.8 285.248 44.784 285.28 44.8C285.312 44.8 285.368 44.728 285.448 44.584C285.48 44.52 285.504 44.44 285.52 44.344C285.552 44.232 285.632 44.144 285.76 44.08C286.336 43.984 286.928 43.864 287.536 43.72C288.144 43.56 288.768 43.424 289.408 43.312C290.048 43.2 290.696 43.144 291.352 43.144C292.008 43.144 292.672 43.248 293.344 43.456C293.408 43.488 293.48 43.512 293.56 43.528C293.656 43.528 293.744 43.544 293.824 43.576C293.904 43.608 293.976 43.656 294.04 43.72C294.104 43.768 294.136 43.84 294.136 43.936C294.136 44 294.064 44.032 293.92 44.032C293.504 44.032 293.024 44.048 292.48 44.08C291.952 44.096 291.48 44.16 291.064 44.272C291.048 44.656 291.032 45.08 291.016 45.544C291.016 46.008 291.032 46.488 291.064 46.984C291.112 47.464 291.192 47.944 291.304 48.424C291.432 48.904 291.624 49.344 291.88 49.744C291.912 49.776 291.928 49.856 291.928 49.984C291.928 50.112 291.912 50.216 291.88 50.296C291.848 50.344 291.84 50.384 291.856 50.416C291.872 50.464 291.864 50.504 291.832 50.536C291.8 50.6 291.744 50.624 291.664 50.608C291.584 50.608 291.52 50.592 291.472 50.56C291.056 50.144 290.752 49.632 290.56 49.024C290.384 48.416 290.28 47.84 290.248 47.296C289.224 48.32 288.168 48.904 287.08 49.048C286.792 49.08 286.56 49.08 286.384 49.048C286.224 49.032 286.008 48.96 285.736 48.832C285.624 48.784 285.456 48.744 285.232 48.712C285.024 48.68 284.88 48.624 284.8 48.544C284.368 48.208 283.984 47.824 283.648 47.392C283.328 46.96 283.064 46.496 282.856 46C282.664 45.504 282.528 44.992 282.448 44.464C282.384 43.92 282.4 43.368 282.496 42.808C282.512 42.088 282.688 41.456 283.024 40.912C283.36 40.352 283.776 39.888 284.272 39.52C284.784 39.152 285.328 38.88 285.904 38.704C286.496 38.512 287.048 38.424 287.56 38.44C287.928 38.456 288.296 38.504 288.664 38.584C289.048 38.648 289.4 38.768 289.72 38.944C290.008 39.104 290.232 39.232 290.392 39.328C290.552 39.408 290.712 39.584 290.872 39.856ZM305.351 44.704C305.303 44.784 305.231 44.84 305.135 44.872C305.055 44.888 304.975 44.92 304.895 44.968C304.815 45.016 304.735 45.08 304.655 45.16C304.575 45.24 304.495 45.304 304.415 45.352C304.639 46.216 304.815 46.968 304.943 47.608C305.071 48.248 305.151 48.728 305.183 49.048C305.215 49.368 305.239 49.72 305.255 50.104C305.271 50.488 305.279 50.84 305.279 51.16C305.279 51.4 305.263 51.592 305.231 51.736C305.215 51.896 305.183 52.048 305.135 52.192C304.943 51.952 304.783 51.696 304.655 51.424C304.543 51.152 304.423 50.88 304.295 50.608C304.023 49.792 303.759 48.936 303.503 48.04C303.263 47.144 303.023 46.232 302.783 45.304C302.335 45.288 301.855 45.28 301.343 45.28C300.831 45.28 300.319 45.28 299.807 45.28C299.295 45.28 298.807 45.288 298.343 45.304C297.895 45.304 297.503 45.312 297.167 45.328C297.135 45.424 297.103 45.536 297.071 45.664C296.975 45.872 296.895 46.104 296.831 46.36C296.767 46.6 296.711 46.864 296.663 47.152C296.615 47.424 296.559 47.712 296.495 48.016C296.431 48.32 296.351 48.624 296.255 48.928C296.463 48.928 296.663 48.864 296.855 48.736C297.063 48.592 297.271 48.52 297.479 48.52C297.335 48.664 297.207 48.824 297.095 49C296.999 49.176 296.911 49.408 296.831 49.696C296.815 49.776 296.767 49.856 296.687 49.936C296.607 50.032 296.551 50.104 296.519 50.152C296.487 50.216 296.455 50.28 296.423 50.344C296.391 50.424 296.351 50.48 296.303 50.512C296.191 50.576 296.095 50.608 296.015 50.608C295.935 50.624 295.879 50.608 295.847 50.56C295.719 50.368 295.631 50.16 295.583 49.936C295.551 49.728 295.519 49.504 295.487 49.264C295.487 48.832 295.543 48.272 295.655 47.584C295.767 46.896 295.911 46.16 296.087 45.376C295.959 45.344 295.831 45.288 295.703 45.208C295.575 45.112 295.463 45.048 295.367 45.016C295.191 44.936 295.047 44.896 294.935 44.896C294.823 44.88 294.703 44.816 294.575 44.704L296.039 44.32C296.119 44.32 296.223 44.304 296.351 44.272C296.543 43.52 296.735 42.8 296.927 42.112C297.119 41.424 297.303 40.84 297.479 40.36C297.607 39.992 297.759 39.568 297.935 39.088C298.127 38.608 298.343 38.152 298.583 37.72C298.839 37.272 299.119 36.888 299.423 36.568C299.743 36.248 300.087 36.048 300.455 35.968C300.567 35.936 300.679 35.912 300.791 35.896C300.903 35.88 301.023 35.872 301.151 35.872C301.279 35.872 301.375 35.936 301.439 36.064C301.503 36.176 301.599 36.32 301.727 36.496C301.807 36.64 301.879 36.768 301.943 36.88C302.023 36.976 302.103 37.184 302.183 37.504C302.567 38.672 302.927 39.848 303.263 41.032C303.599 42.2 303.895 43.304 304.151 44.344L305.615 44.656L305.351 44.704ZM300.455 37C300.183 37.368 299.927 37.776 299.687 38.224C299.447 38.656 299.207 39.16 298.967 39.736C298.727 40.296 298.487 40.944 298.247 41.68C298.007 42.4 297.759 43.216 297.503 44.128C298.335 44.032 299.167 43.976 299.999 43.96C300.831 43.944 301.655 43.976 302.471 44.056C302.135 42.76 301.807 41.504 301.487 40.288C301.167 39.056 300.823 37.96 300.455 37ZM308.999 48.184C309.783 48.088 310.519 47.976 311.207 47.848C311.911 47.72 312.575 47.576 313.199 47.416C313.823 47.256 314.423 47.08 314.999 46.888C315.591 46.68 316.175 46.464 316.751 46.24C316.991 46.128 317.207 46.072 317.399 46.072C317.527 46.072 317.583 46.128 317.567 46.24C317.599 46.32 317.631 46.368 317.663 46.384C317.695 46.384 317.711 46.48 317.711 46.672C317.711 46.848 317.663 47.016 317.567 47.176C317.471 47.336 317.383 47.464 317.303 47.56C317.159 47.72 316.903 47.896 316.535 48.088C316.167 48.264 315.727 48.448 315.215 48.64C314.703 48.832 314.159 49.024 313.583 49.216C313.007 49.408 312.439 49.584 311.879 49.744C311.335 49.904 310.831 50.04 310.367 50.152C309.919 50.28 309.567 50.368 309.311 50.416C309.167 50.448 309.031 50.4 308.903 50.272C308.775 50.16 308.671 50.088 308.591 50.056C308.367 49.944 308.239 49.8 308.207 49.624C308.191 49.448 308.127 49.232 308.015 48.976C307.887 48.736 307.799 48.488 307.751 48.232C307.703 47.96 307.671 47.696 307.655 47.44C307.623 46.784 307.623 46.128 307.655 45.472C307.687 44.816 307.719 44.144 307.751 43.456C307.783 42.752 307.799 42.032 307.799 41.296C307.799 40.544 307.759 39.744 307.679 38.896C307.711 38.816 307.767 38.808 307.847 38.872C307.943 38.936 308.039 38.984 308.135 39.016C308.215 39.048 308.287 39.08 308.351 39.112C308.415 39.128 308.471 39.176 308.519 39.256C308.679 39.544 308.799 40.048 308.879 40.768C308.975 41.472 309.031 42.264 309.047 43.144C309.079 44.024 309.087 44.92 309.071 45.832C309.055 46.728 309.031 47.512 308.999 48.184ZM320.999 48.184C321.783 48.088 322.519 47.976 323.207 47.848C323.911 47.72 324.575 47.576 325.199 47.416C325.823 47.256 326.423 47.08 326.999 46.888C327.591 46.68 328.175 46.464 328.751 46.24C328.991 46.128 329.207 46.072 329.399 46.072C329.527 46.072 329.583 46.128 329.567 46.24C329.599 46.32 329.631 46.368 329.663 46.384C329.695 46.384 329.711 46.48 329.711 46.672C329.711 46.848 329.663 47.016 329.567 47.176C329.471 47.336 329.383 47.464 329.303 47.56C329.159 47.72 328.903 47.896 328.535 48.088C328.167 48.264 327.727 48.448 327.215 48.64C326.703 48.832 326.159 49.024 325.583 49.216C325.007 49.408 324.439 49.584 323.879 49.744C323.335 49.904 322.831 50.04 322.367 50.152C321.919 50.28 321.567 50.368 321.311 50.416C321.167 50.448 321.031 50.4 320.903 50.272C320.775 50.16 320.671 50.088 320.591 50.056C320.367 49.944 320.239 49.8 320.207 49.624C320.191 49.448 320.127 49.232 320.015 48.976C319.887 48.736 319.799 48.488 319.751 48.232C319.703 47.96 319.671 47.696 319.655 47.44C319.623 46.784 319.623 46.128 319.655 45.472C319.687 44.816 319.719 44.144 319.751 43.456C319.783 42.752 319.799 42.032 319.799 41.296C319.799 40.544 319.759 39.744 319.679 38.896C319.711 38.816 319.767 38.808 319.847 38.872C319.943 38.936 320.039 38.984 320.135 39.016C320.215 39.048 320.287 39.08 320.351 39.112C320.415 39.128 320.471 39.176 320.519 39.256C320.679 39.544 320.799 40.048 320.879 40.768C320.975 41.472 321.031 42.264 321.047 43.144C321.079 44.024 321.087 44.92 321.071 45.832C321.055 46.728 321.031 47.512 320.999 48.184ZM339.407 43.144C339.567 43.176 339.679 43.208 339.743 43.24C339.823 43.256 339.871 43.304 339.887 43.384L339.479 43.96C339.383 44.04 339.255 44.104 339.095 44.152C338.951 44.2 338.815 44.24 338.687 44.272C338.319 44.304 337.911 44.328 337.463 44.344C337.015 44.36 336.551 44.384 336.071 44.416C335.591 44.432 335.103 44.448 334.607 44.464C334.127 44.48 333.671 44.496 333.239 44.512C333.239 45.184 333.239 45.808 333.239 46.384C333.255 46.96 333.279 47.424 333.311 47.776C333.711 47.712 334.175 47.608 334.703 47.464C335.231 47.32 335.799 47.152 336.407 46.96C337.015 46.768 337.647 46.56 338.303 46.336C338.959 46.112 339.599 45.88 340.223 45.64C340.447 45.56 340.655 45.496 340.847 45.448C341.055 45.384 341.263 45.32 341.471 45.256C341.471 45.32 341.463 45.368 341.447 45.4C341.431 45.416 341.407 45.44 341.375 45.472C341.327 45.6 341.255 45.712 341.159 45.808C341.063 45.888 340.967 45.96 340.871 46.024C340.791 46.088 340.719 46.144 340.655 46.192C340.575 46.256 340.503 46.352 340.439 46.48C340.391 46.608 340.279 46.728 340.103 46.84C339.063 47.48 338.015 48.008 336.959 48.424C335.903 48.84 334.783 49.216 333.599 49.552C333.327 49.632 333.111 49.64 332.951 49.576C332.791 49.528 332.655 49.384 332.543 49.144C332.511 49.016 332.471 48.912 332.423 48.832C332.375 48.752 332.263 48.648 332.087 48.52C332.007 48.456 331.967 48.352 331.967 48.208C331.967 48.048 331.959 47.88 331.943 47.704C331.911 47.32 331.887 46.856 331.871 46.312C331.871 45.752 331.879 45.16 331.895 44.536H331.271C331.127 44.52 331.023 44.504 330.959 44.488C330.895 44.456 330.799 44.376 330.671 44.248C330.671 44.136 330.695 44.064 330.743 44.032C330.807 44 330.863 43.952 330.911 43.888C330.959 43.824 330.999 43.752 331.031 43.672C331.079 43.592 331.143 43.536 331.223 43.504C331.303 43.488 331.399 43.472 331.511 43.456C331.639 43.44 331.783 43.416 331.943 43.384C331.975 42.792 331.999 42.2 332.015 41.608C332.047 41.016 332.079 40.464 332.111 39.952H331.775C331.583 39.952 331.447 39.936 331.367 39.904C331.303 39.856 331.255 39.816 331.223 39.784C331.191 39.736 331.167 39.696 331.151 39.664C331.135 39.616 331.087 39.584 331.007 39.568C330.879 39.552 330.815 39.528 330.815 39.496C330.815 39.464 330.783 39.432 330.719 39.4C330.655 39.352 330.679 39.296 330.791 39.232C330.919 39.168 331.047 39.04 331.175 38.848C331.287 38.736 331.351 38.648 331.367 38.584C331.399 38.52 331.503 38.448 331.679 38.368C331.839 38.288 332.143 38.24 332.591 38.224C333.039 38.208 333.543 38.216 334.103 38.248C334.663 38.264 335.231 38.304 335.807 38.368C336.399 38.416 336.903 38.48 337.319 38.56C337.575 38.624 337.807 38.704 338.015 38.8C338.223 38.88 338.423 38.992 338.615 39.136C338.615 39.184 338.575 39.216 338.495 39.232C338.431 39.232 338.383 39.248 338.351 39.28C338.287 39.328 338.223 39.368 338.159 39.4C338.095 39.416 338.039 39.44 337.991 39.472C337.927 39.504 337.863 39.528 337.799 39.544C337.543 39.624 337.271 39.696 336.983 39.76C336.711 39.808 336.399 39.848 336.047 39.88C335.711 39.912 335.311 39.936 334.847 39.952C334.399 39.952 333.879 39.952 333.287 39.952C333.271 40.416 333.255 40.928 333.239 41.488C333.239 42.048 333.239 42.624 333.239 43.216C334.007 43.136 334.855 43.072 335.783 43.024C336.727 42.96 337.607 42.92 338.423 42.904C338.599 42.904 338.767 42.944 338.927 43.024C339.087 43.104 339.247 43.144 339.407 43.144ZM350.758 39.976C350.758 40.68 350.638 41.328 350.398 41.92C350.286 42.224 350.134 42.528 349.942 42.832C349.75 43.12 349.534 43.408 349.294 43.696C349.07 43.968 348.83 44.232 348.574 44.488C348.334 44.728 348.11 44.952 347.902 45.16C348.382 45.304 348.91 45.464 349.486 45.64C350.078 45.8 350.662 45.992 351.238 46.216C351.814 46.44 352.366 46.696 352.894 46.984C353.422 47.256 353.878 47.568 354.262 47.92C354.374 48.016 354.446 48.112 354.478 48.208C354.51 48.288 354.526 48.392 354.526 48.52C354.526 48.648 354.526 48.728 354.526 48.76C354.542 48.792 354.518 48.856 354.454 48.952C354.406 49.032 354.374 49.12 354.358 49.216C354.358 49.312 354.326 49.376 354.262 49.408C354.182 49.44 354.102 49.424 354.022 49.36C353.11 48.768 352.03 48.232 350.782 47.752C349.55 47.272 348.318 46.856 347.086 46.504C346.958 46.504 346.838 46.528 346.726 46.576C346.614 46.624 346.478 46.68 346.318 46.744C346.19 46.792 346.014 46.848 345.79 46.912C345.582 46.976 345.47 46.976 345.454 46.912C345.454 46.656 345.526 46.424 345.67 46.216C345.814 46.008 345.942 45.792 346.054 45.568C346.182 45.296 346.262 45.12 346.294 45.04C346.342 44.96 346.406 44.872 346.486 44.776C346.55 44.696 346.622 44.6 346.702 44.488C346.798 44.36 346.934 44.208 347.11 44.032C347.51 43.648 347.846 43.288 348.118 42.952C348.406 42.6 348.638 42.264 348.814 41.944C349.006 41.608 349.166 41.28 349.294 40.96C349.422 40.64 349.55 40.32 349.678 40C348.638 40.032 347.702 40.12 346.87 40.264C346.038 40.392 345.182 40.568 344.302 40.792C344.398 41.4 344.47 42.088 344.518 42.856C344.566 43.608 344.606 44.384 344.638 45.184C344.686 45.984 344.734 46.784 344.782 47.584C344.83 48.368 344.918 49.096 345.046 49.768C345.126 49.992 345.15 50.192 345.118 50.368C345.102 50.416 345.094 50.456 345.094 50.488C345.094 50.52 345.078 50.552 345.046 50.584C344.438 49.144 343.998 47.592 343.726 45.928C343.47 44.248 343.486 42.576 343.774 40.912C343.662 40.928 343.51 40.96 343.318 41.008C343.126 41.056 342.918 41.112 342.694 41.176C342.486 41.24 342.278 41.304 342.07 41.368C341.878 41.432 341.71 41.48 341.566 41.512L341.014 41.584C340.966 41.44 340.982 41.336 341.062 41.272C341.126 41.192 341.174 41.096 341.206 40.984C341.318 40.6 341.55 40.312 341.902 40.12C342.046 40.04 342.166 39.944 342.262 39.832C342.358 39.72 342.47 39.632 342.598 39.568C343.03 39.392 343.518 39.24 344.062 39.112C344.606 38.984 345.158 38.888 345.718 38.824C346.294 38.744 346.862 38.712 347.422 38.728C347.998 38.728 348.542 38.784 349.054 38.896C349.214 38.928 349.366 38.992 349.51 39.088C349.654 39.168 349.798 39.24 349.942 39.304L350.326 39.544C350.662 39.592 350.806 39.736 350.758 39.976ZM364.732 38.032C364.764 38.112 364.772 38.184 364.756 38.248C364.756 38.296 364.764 38.352 364.78 38.416C364.812 38.544 364.828 38.648 364.828 38.728C364.844 38.808 364.836 38.896 364.804 38.992C364.484 39.792 364.012 40.616 363.388 41.464C362.78 42.312 361.972 43.32 360.964 44.488C360.948 44.76 360.932 45.12 360.916 45.568C360.916 46 360.916 46.472 360.916 46.984C360.932 47.48 360.964 47.992 361.012 48.52C361.06 49.032 361.132 49.504 361.228 49.936C361.26 50.016 361.276 50.08 361.276 50.128C361.276 50.176 361.276 50.24 361.276 50.32C361.276 50.416 361.252 50.488 361.204 50.536C361.156 50.6 361.116 50.672 361.084 50.752C361.02 50.88 360.98 51.024 360.964 51.184C360.948 51.344 360.916 51.472 360.868 51.568C360.804 51.696 360.748 51.8 360.7 51.88C360.668 51.96 360.628 52.024 360.58 52.072C360.308 51.672 360.092 51.184 359.932 50.608C359.788 50.032 359.684 49.44 359.62 48.832C359.572 48.224 359.556 47.632 359.572 47.056C359.604 46.464 359.668 45.96 359.764 45.544C359.284 45.16 358.836 44.744 358.42 44.296C358.02 43.832 357.628 43.368 357.244 42.904C356.86 42.44 356.468 42 356.068 41.584C355.684 41.152 355.26 40.776 354.796 40.456C354.732 40.424 354.684 40.376 354.652 40.312C354.62 40.232 354.588 40.16 354.556 40.096C354.476 39.936 354.46 39.792 354.508 39.664C354.524 39.616 354.54 39.568 354.556 39.52C354.572 39.456 354.596 39.408 354.628 39.376L354.868 39.424C355.284 39.488 355.724 39.704 356.188 40.072C356.652 40.44 357.092 40.856 357.508 41.32C357.94 41.784 358.332 42.248 358.684 42.712C359.052 43.16 359.34 43.504 359.548 43.744C359.82 43.44 360.14 43.072 360.508 42.64C360.876 42.208 361.252 41.76 361.636 41.296C362.036 40.816 362.436 40.328 362.836 39.832C363.236 39.336 363.604 38.856 363.94 38.392L364.372 37.768C364.452 37.736 364.524 37.752 364.588 37.816C364.652 37.88 364.7 37.952 364.732 38.032Z" fill="#CE0000"/>
<path d="M147.3 70.84C150.18 72.28 151.86 74.2 152.34 76.6C152.98 79 153.06 81.56 152.58 84.28C152.26 86.36 151.7 88.2 150.9 89.8C150.1 91.4 149.3 93.24 148.5 95.32C147.22 98.36 145.62 101.64 143.7 105.16C141.94 108.52 140.02 111.56 137.94 114.28C133.78 119.4 129.22 123.8 124.26 127.48C119.3 131.16 114.1 133.64 108.66 134.92C107.7 134.12 107.06 133.16 106.74 132.04C106.58 130.92 106.18 129.64 105.54 128.2C105.06 126.76 104.42 125.48 103.62 124.36C102.82 123.08 102.34 121.72 102.18 120.28C102.02 118.04 102.02 115.88 102.18 113.8C102.5 111.72 102.82 110.2 103.14 109.24C104.1 104.92 105.86 99.96 108.42 94.36C111.14 88.6 114.34 83.08 118.02 77.8C121.7 72.36 125.7 67.4 130.02 62.92C134.34 58.44 138.74 55.16 143.22 53.08C143.7 53.08 144.1 53 144.42 52.84C145.38 52.84 145.86 52.84 145.86 52.84C146.18 53.16 146.1 53.64 145.62 54.28C145.3 54.92 145.3 55.4 145.62 55.72C146.42 56.52 146.82 57.24 146.82 57.88C146.5 58.68 146.02 59.96 145.38 61.72C144.9 63.32 144.02 65 142.74 66.76L140.58 69.64C142.66 69.64 144.9 70.04 147.3 70.84ZM171.78 150.28C168.74 152.68 164.26 155.16 158.34 157.72C152.42 160.12 146.1 162.44 139.38 164.68C132.82 166.76 126.34 168.68 119.94 170.44C113.54 172.04 108.34 173.24 104.34 174.04C103.22 174.36 101.46 174.2 99.06 173.56C96.82 172.92 94.66 172.68 92.58 172.84C91.46 172.84 90.26 172.52 88.98 171.88C87.86 171.24 87.06 170.04 86.58 168.28C86.26 167 86.26 166.04 86.58 165.4C86.9 164.76 87.3 163.8 87.78 162.52C87.94 161.88 88.1 161.16 88.26 160.36C88.42 159.56 88.66 158.92 88.98 158.44C89.94 157.16 90.74 156.52 91.38 156.52C96.66 155.72 102.66 154.52 109.38 152.92C116.26 151.32 123.06 149.64 129.78 147.88C136.66 145.96 143.14 144.12 149.22 142.36C155.3 140.44 160.18 138.84 163.86 137.56C164.98 137.24 166.34 136.76 167.94 136.12C169.7 135.48 171.46 134.92 173.22 134.44C174.98 133.8 176.58 133.24 178.02 132.76C179.46 132.28 180.58 132.04 181.38 132.04C182.18 132.04 182.58 132.2 182.58 132.52C182.58 132.68 182.42 133 182.1 133.48C181.94 133.8 181.7 134.12 181.38 134.44C181.06 134.76 180.98 135 181.14 135.16C180.98 135.96 180.74 136.6 180.42 137.08C180.26 137.4 179.94 137.8 179.46 138.28C179.14 138.6 178.74 139.08 178.26 139.72C177.78 140.2 177.22 141 176.58 142.12C176.1 143.08 175.38 144.44 174.42 146.2C173.62 147.96 172.74 149.32 171.78 150.28ZM145.62 173.8C144.82 180.52 143.86 187.96 142.74 196.12C141.78 204.28 141.3 212.68 141.3 221.32C141.3 222.12 141.22 223 141.06 223.96C140.9 224.92 140.58 225.32 140.1 225.16C139.78 224.84 139.3 224.28 138.66 223.48C138.18 222.68 137.7 222.12 137.22 221.8C135.94 220.68 135.14 219.72 134.82 218.92C133.54 214.12 133.06 208.92 133.38 203.32C133.86 197.88 134.66 192.6 135.78 187.48C137.06 182.36 138.42 177.8 139.86 173.8C141.3 169.8 142.42 166.92 143.22 165.16C145.46 165.16 146.5 166.04 146.34 167.8C146.18 169.56 145.94 171.56 145.62 173.8ZM117.54 114.28C119.62 113.32 122.18 111.64 125.22 109.24C128.42 106.84 131.46 104.2 134.34 101.32C137.38 98.28 139.94 95.24 142.02 92.2C144.1 89.16 145.14 86.52 145.14 84.28C144.82 83 143.54 81.96 141.3 81.16C139.22 80.2 136.98 79.56 134.58 79.24C131.06 84.84 127.78 90.84 124.74 97.24C121.7 103.48 119.3 109.16 117.54 114.28ZM237.465 77.56C238.425 81.4 238.025 85.32 236.265 89.32C234.665 93.32 232.505 97.16 229.785 100.84C227.065 104.52 224.105 107.96 220.905 111.16C217.865 114.2 215.305 116.76 213.225 118.84C217.865 117.72 222.185 116.92 226.185 116.44C230.345 115.96 233.785 115.88 236.505 116.2C237.305 116.36 238.265 116.52 239.385 116.68C240.665 116.68 241.625 116.84 242.265 117.16C243.065 117.48 243.465 117.88 243.465 118.36C243.625 118.68 243.865 119.16 244.185 119.8C244.665 121.24 245.065 122.44 245.385 123.4C245.865 124.36 245.945 125.4 245.625 126.52C245.305 127.32 244.825 128.2 244.185 129.16C243.545 129.96 242.985 130.68 242.505 131.32C237.545 138.52 232.345 145.8 226.905 153.16C221.465 160.52 216.745 168.28 212.745 176.44C220.425 173.4 228.185 169.4 236.025 164.44C243.865 159.48 251.145 154.36 257.865 149.08C264.585 143.8 270.585 138.84 275.865 134.2C281.145 129.56 285.145 126.04 287.865 123.64C287.865 124.44 287.225 125.8 285.945 127.72C284.825 129.64 284.105 131 283.785 131.8C282.505 134.68 281.225 136.84 279.945 138.28C278.665 139.56 277.385 141.64 276.105 144.52C274.185 146.92 271.945 149.72 269.385 152.92C266.825 156.12 264.425 159 262.185 161.56C258.985 165.08 255.625 168.52 252.105 171.88C248.585 175.24 244.825 178.36 240.825 181.24C236.985 184.12 232.985 186.68 228.825 188.92C224.665 191.16 220.345 192.84 215.865 193.96C214.905 194.28 213.945 194.28 212.985 193.96C212.185 193.64 211.305 193.32 210.345 193C209.385 192.68 208.265 192.44 206.985 192.28C205.865 192.12 204.985 191.64 204.345 190.84C203.865 190.04 203.625 189.24 203.625 188.44C203.785 187.64 203.865 186.6 203.865 185.32C204.025 182.12 204.905 178.2 206.505 173.56C208.265 168.76 210.185 163.88 212.265 158.92C214.505 153.96 216.745 149.32 218.985 145C221.225 140.52 222.985 136.92 224.265 134.2C222.985 134.36 221.465 134.68 219.705 135.16C217.945 135.48 216.025 135.88 213.945 136.36C212.025 136.84 210.025 137.32 207.945 137.8C206.025 138.12 204.265 138.44 202.665 138.76C201.865 139.08 201.145 139.08 200.505 138.76C199.865 138.44 199.145 138.04 198.345 137.56C197.705 137.24 196.825 136.84 195.705 136.36C194.745 135.88 194.105 135.24 193.785 134.44C193.625 133.96 193.705 133.56 194.025 133.24C194.345 132.76 194.505 132.2 194.505 131.56C194.505 130.92 194.825 130.12 195.465 129.16C196.105 128.04 196.825 127 197.625 126.04C198.585 124.92 199.465 123.96 200.265 123.16C201.065 122.36 201.705 121.72 202.185 121.24C204.105 118.68 206.105 115.8 208.185 112.6C210.425 109.4 212.425 106.2 214.185 103C215.945 99.8 217.465 96.76 218.745 93.88C220.025 90.84 220.825 88.2 221.145 85.96C221.145 85.16 220.425 84.76 218.985 84.76C217.545 84.6 215.785 84.68 213.705 85C211.625 85.32 209.385 85.8 206.985 86.44C204.745 86.92 202.825 87.4 201.225 87.88C199.945 87.72 198.345 87 196.425 85.72C194.665 84.44 193.385 83.32 192.585 82.36C191.785 81.56 191.385 80.92 191.385 80.44C191.385 79.8 191.305 79.4 191.145 79.24C190.185 77.96 190.745 76.76 192.825 75.64C193.785 75 195.305 74.28 197.385 73.48C199.465 72.52 201.705 71.64 204.105 70.84C206.665 70.04 209.225 69.32 211.785 68.68C214.345 68.04 216.505 67.64 218.265 67.48C219.225 67.32 220.505 67.4 222.105 67.72C223.705 67.88 225.385 68.36 227.145 69.16C227.945 69.48 228.985 70.2 230.265 71.32C231.705 72.44 232.825 73.24 233.625 73.72C234.905 74.52 235.705 75.08 236.025 75.4C236.345 75.56 236.825 76.28 237.465 77.56ZM308.985 84.28C309.625 89.88 310.025 96.2 310.185 103.24C310.505 110.12 310.585 117.24 310.425 124.6C310.425 131.96 310.265 139.24 309.945 146.44C309.785 153.48 309.545 159.96 309.225 165.88C309.065 171.8 308.825 176.76 308.505 180.76C308.345 184.76 308.265 187.4 308.265 188.68C304.905 184.2 302.425 177.96 300.825 169.96C299.385 161.8 298.505 152.92 298.185 143.32C298.025 133.72 298.265 123.88 298.905 113.8C299.545 103.56 300.345 94.04 301.305 85.24C301.145 84.6 301.385 84.12 302.025 83.8C302.825 83.32 303.625 82.76 304.425 82.12C304.905 81.8 305.385 81.32 305.865 80.68C306.345 80.04 306.745 79.72 307.065 79.72C308.025 79.56 308.505 80.12 308.505 81.4C308.665 82.52 308.825 83.48 308.985 84.28Z" fill="black"/>
</svg>
